# xmcd CD database file
#
# Track frame offsets:
#	150
#	14729
#	27752
#	42538
#	55634
#	71948
#	87635
#	101656
#	115395
#	131595
#
# Disc length: 1945 seconds
#
# Revision: 0
# Processed by: cddbd v1.5.2PL0 Copyright (c) Steve Scherf et al.
# Submitted via: Feurio! 1.68 - http://www.feurio.com
#
DISCID=9107970a
DTITLE=Johannes Stankowski - Torres
DYEAR=2011
DGENRE=
TTITLE0=Out Of Time
TTITLE1=Light and Clear
TTITLE2=Borrowed Wings
TTITLE3=Samurai
TTITLE4=Pretty Little Things
TTITLE5=Leave My Heart
TTITLE6=Rocky Road
TTITLE7=Down Below
TTITLE8=We Face The Dark
TTITLE9=I Love You
EXTD=
EXTT0=
EXTT1=
EXTT2=
EXTT3=
EXTT4=
EXTT5=
EXTT6=
EXTT7=
EXTT8=
EXTT9=
PLAYORDER=
